<mxfile modified="2023-05-05T06:24:34.894Z" host="app.diagrams.net" agent="Mozilla/5.0 (Windows NT 10.0; Win64; x64; rv:109.0) Gecko/20100101 Firefox/112.0" etag="vTnMEs6Mg79xTaI1pKE9" version="21.2.7" type="github">
  <diagram id="Ht1M8jgEwFfnCIfOTk4-" name="Page-1">
    <mxGraphModel dx="1562" dy="818" grid="1" gridSize="10" guides="1" tooltips="1" connect="1" arrows="1" fold="1" page="1" pageScale="1" pageWidth="1169" pageHeight="827" math="0" shadow="0">
      <root>
        <mxCell id="0" />
        <mxCell id="1" parent="0" />
        <mxCell id="UEzPUAAOIrF-is8g5C7q-74" value="AWS Cloud" style="points=[[0,0],[0.25,0],[0.5,0],[0.75,0],[1,0],[1,0.25],[1,0.5],[1,0.75],[1,1],[0.75,1],[0.5,1],[0.25,1],[0,1],[0,0.75],[0,0.5],[0,0.25]];outlineConnect=0;gradientColor=none;html=1;whiteSpace=wrap;fontSize=12;fontStyle=0;shape=mxgraph.aws4.group;grIcon=mxgraph.aws4.group_aws_cloud_alt;strokeColor=#232F3E;fillColor=none;verticalAlign=top;align=left;spacingLeft=30;fontColor=#232F3E;dashed=0;labelBackgroundColor=#ffffff;container=1;pointerEvents=0;collapsible=0;recursiveResize=0;" parent="1" vertex="1">
          <mxGeometry x="50" y="80" width="630" height="650" as="geometry" />
        </mxCell>
        <mxCell id="9C9BkFQv00oy1roisTuS-2" value="" style="sketch=0;outlineConnect=0;fontColor=#232F3E;gradientColor=none;fillColor=#3F8624;strokeColor=none;dashed=0;verticalLabelPosition=bottom;verticalAlign=top;align=center;html=1;fontSize=12;fontStyle=0;aspect=fixed;pointerEvents=1;shape=mxgraph.aws4.object;" parent="UEzPUAAOIrF-is8g5C7q-74" vertex="1">
          <mxGeometry x="60" y="280" width="78" height="78" as="geometry" />
        </mxCell>
        <mxCell id="9C9BkFQv00oy1roisTuS-3" value="" style="sketch=0;outlineConnect=0;fontColor=#232F3E;gradientColor=none;fillColor=#3F8624;strokeColor=none;dashed=0;verticalLabelPosition=bottom;verticalAlign=top;align=center;html=1;fontSize=12;fontStyle=0;aspect=fixed;pointerEvents=1;shape=mxgraph.aws4.bucket_with_objects;" parent="UEzPUAAOIrF-is8g5C7q-74" vertex="1">
          <mxGeometry x="190" y="280" width="75" height="78" as="geometry" />
        </mxCell>
        <mxCell id="9C9BkFQv00oy1roisTuS-5" value="" style="endArrow=classic;html=1;rounded=0;" parent="UEzPUAAOIrF-is8g5C7q-74" source="9C9BkFQv00oy1roisTuS-2" target="9C9BkFQv00oy1roisTuS-3" edge="1">
          <mxGeometry width="50" height="50" relative="1" as="geometry">
            <mxPoint x="510" y="400" as="sourcePoint" />
            <mxPoint x="560" y="350" as="targetPoint" />
          </mxGeometry>
        </mxCell>
        <mxCell id="9C9BkFQv00oy1roisTuS-7" value="" style="shape=cube;whiteSpace=wrap;html=1;boundedLbl=1;backgroundOutline=1;darkOpacity=0.05;darkOpacity2=0.1;" parent="UEzPUAAOIrF-is8g5C7q-74" vertex="1">
          <mxGeometry x="350" y="256.5" width="150" height="125" as="geometry" />
        </mxCell>
        <mxCell id="9C9BkFQv00oy1roisTuS-23" value="Inserting Objects into Bucket and containerizing the application" style="swimlane;whiteSpace=wrap;html=1;startSize=23;" parent="UEzPUAAOIrF-is8g5C7q-74" vertex="1">
          <mxGeometry x="30" y="200" width="500" height="220" as="geometry" />
        </mxCell>
        <mxCell id="UEzPUAAOIrF-is8g5C7q-75" value="AWS Cloud" style="points=[[0,0],[0.25,0],[0.5,0],[0.75,0],[1,0],[1,0.25],[1,0.5],[1,0.75],[1,1],[0.75,1],[0.5,1],[0.25,1],[0,1],[0,0.75],[0,0.5],[0,0.25]];outlineConnect=0;gradientColor=none;html=1;whiteSpace=wrap;fontSize=12;fontStyle=0;shape=mxgraph.aws4.group;grIcon=mxgraph.aws4.group_aws_cloud_alt;strokeColor=#232F3E;fillColor=none;verticalAlign=top;align=left;spacingLeft=30;fontColor=#232F3E;dashed=0;labelBackgroundColor=#ffffff;container=1;pointerEvents=0;collapsible=0;recursiveResize=0;" parent="1" vertex="1">
          <mxGeometry x="720" y="80" width="400" height="650" as="geometry" />
        </mxCell>
        <mxCell id="UEzPUAAOIrF-is8g5C7q-108" value="" style="rounded=0;whiteSpace=wrap;html=1;labelBackgroundColor=none;fillColor=none;dashed=1;container=1;pointerEvents=0;collapsible=0;recursiveResize=0;" parent="UEzPUAAOIrF-is8g5C7q-75" vertex="1">
          <mxGeometry x="10" y="360" width="380" height="280" as="geometry" />
        </mxCell>
        <mxCell id="9C9BkFQv00oy1roisTuS-12" value="" style="outlineConnect=0;dashed=0;verticalLabelPosition=bottom;verticalAlign=top;align=center;html=1;shape=mxgraph.aws3.ec2;fillColor=#F58534;gradientColor=none;" parent="UEzPUAAOIrF-is8g5C7q-108" vertex="1">
          <mxGeometry x="70" y="93.5" width="76.5" height="93" as="geometry" />
        </mxCell>
        <mxCell id="9C9BkFQv00oy1roisTuS-14" value="" style="outlineConnect=0;dashed=0;verticalLabelPosition=bottom;verticalAlign=top;align=center;html=1;shape=mxgraph.aws3.volume;fillColor=#E05243;gradientColor=none;" parent="UEzPUAAOIrF-is8g5C7q-108" vertex="1">
          <mxGeometry x="250" y="102.5" width="52.5" height="75" as="geometry" />
        </mxCell>
        <mxCell id="9C9BkFQv00oy1roisTuS-15" value="" style="endArrow=classic;html=1;rounded=0;" parent="UEzPUAAOIrF-is8g5C7q-108" source="9C9BkFQv00oy1roisTuS-12" edge="1">
          <mxGeometry width="50" height="50" relative="1" as="geometry">
            <mxPoint x="146.5" y="143.5" as="sourcePoint" />
            <mxPoint x="240" y="140" as="targetPoint" />
          </mxGeometry>
        </mxCell>
        <mxCell id="9C9BkFQv00oy1roisTuS-20" value="" style="endArrow=classic;html=1;rounded=0;" parent="UEzPUAAOIrF-is8g5C7q-108" edge="1">
          <mxGeometry width="50" height="50" relative="1" as="geometry">
            <mxPoint y="140" as="sourcePoint" />
            <mxPoint x="60" y="140" as="targetPoint" />
          </mxGeometry>
        </mxCell>
        <mxCell id="9C9BkFQv00oy1roisTuS-25" value="&lt;div&gt;Elastic Compute Cloud&lt;/div&gt;EC2" style="text;html=1;strokeColor=none;fillColor=none;align=center;verticalAlign=middle;whiteSpace=wrap;rounded=0;" parent="UEzPUAAOIrF-is8g5C7q-108" vertex="1">
          <mxGeometry x="43.25" y="200" width="130" height="30" as="geometry" />
        </mxCell>
        <mxCell id="9C9BkFQv00oy1roisTuS-27" value="&lt;div&gt;Elastic Block Store&lt;br&gt;&lt;/div&gt;&lt;div&gt;EBS&lt;/div&gt;" style="text;html=1;strokeColor=none;fillColor=none;align=center;verticalAlign=middle;whiteSpace=wrap;rounded=0;" parent="UEzPUAAOIrF-is8g5C7q-108" vertex="1">
          <mxGeometry x="221.25" y="210" width="130" height="30" as="geometry" />
        </mxCell>
        <mxCell id="9C9BkFQv00oy1roisTuS-28" value="AVAILABILITY ZONE B" style="text;html=1;strokeColor=none;fillColor=none;align=center;verticalAlign=middle;whiteSpace=wrap;rounded=0;" parent="UEzPUAAOIrF-is8g5C7q-108" vertex="1">
          <mxGeometry x="10" y="10" width="120" height="30" as="geometry" />
        </mxCell>
        <mxCell id="9C9BkFQv00oy1roisTuS-1" value="" style="rounded=0;whiteSpace=wrap;html=1;labelBackgroundColor=none;fillColor=none;dashed=1;container=1;pointerEvents=0;collapsible=0;recursiveResize=0;" parent="UEzPUAAOIrF-is8g5C7q-75" vertex="1">
          <mxGeometry x="10" y="40" width="380" height="280" as="geometry" />
        </mxCell>
        <mxCell id="9C9BkFQv00oy1roisTuS-11" value="" style="outlineConnect=0;dashed=0;verticalLabelPosition=bottom;verticalAlign=top;align=center;html=1;shape=mxgraph.aws3.ec2;fillColor=#F58534;gradientColor=none;" parent="9C9BkFQv00oy1roisTuS-1" vertex="1">
          <mxGeometry x="70" y="93.5" width="76.5" height="93" as="geometry" />
        </mxCell>
        <mxCell id="9C9BkFQv00oy1roisTuS-13" value="" style="outlineConnect=0;dashed=0;verticalLabelPosition=bottom;verticalAlign=top;align=center;html=1;shape=mxgraph.aws3.volume;fillColor=#E05243;gradientColor=none;" parent="9C9BkFQv00oy1roisTuS-1" vertex="1">
          <mxGeometry x="250" y="102.5" width="52.5" height="75" as="geometry" />
        </mxCell>
        <mxCell id="9C9BkFQv00oy1roisTuS-17" value="" style="endArrow=classic;html=1;rounded=0;" parent="9C9BkFQv00oy1roisTuS-1" edge="1">
          <mxGeometry width="50" height="50" relative="1" as="geometry">
            <mxPoint x="143.5" y="139.5" as="sourcePoint" />
            <mxPoint x="236.5" y="139.5" as="targetPoint" />
          </mxGeometry>
        </mxCell>
        <mxCell id="9C9BkFQv00oy1roisTuS-21" value="" style="endArrow=classic;html=1;rounded=0;" parent="9C9BkFQv00oy1roisTuS-1" edge="1">
          <mxGeometry width="50" height="50" relative="1" as="geometry">
            <mxPoint y="139.5" as="sourcePoint" />
            <mxPoint x="60" y="139.5" as="targetPoint" />
          </mxGeometry>
        </mxCell>
        <mxCell id="9C9BkFQv00oy1roisTuS-24" value="&lt;div&gt;Elastic Compute Cloud&lt;/div&gt;EC2" style="text;html=1;strokeColor=none;fillColor=none;align=center;verticalAlign=middle;whiteSpace=wrap;rounded=0;" parent="9C9BkFQv00oy1roisTuS-1" vertex="1">
          <mxGeometry x="43.25" y="186.5" width="130" height="30" as="geometry" />
        </mxCell>
        <mxCell id="9C9BkFQv00oy1roisTuS-26" value="&lt;div&gt;Elastic Block Store&lt;br&gt;&lt;/div&gt;&lt;div&gt;EBS&lt;/div&gt;" style="text;html=1;strokeColor=none;fillColor=none;align=center;verticalAlign=middle;whiteSpace=wrap;rounded=0;" parent="9C9BkFQv00oy1roisTuS-1" vertex="1">
          <mxGeometry x="211.25" y="186.5" width="130" height="30" as="geometry" />
        </mxCell>
        <mxCell id="9C9BkFQv00oy1roisTuS-45" value="AVAILABILITY ZONE A" style="text;html=1;strokeColor=none;fillColor=none;align=center;verticalAlign=middle;whiteSpace=wrap;rounded=0;" parent="9C9BkFQv00oy1roisTuS-1" vertex="1">
          <mxGeometry x="10" y="10" width="120" height="30" as="geometry" />
        </mxCell>
        <mxCell id="9C9BkFQv00oy1roisTuS-10" value="" style="shape=flexArrow;endArrow=classic;html=1;rounded=0;" parent="1" source="9C9BkFQv00oy1roisTuS-3" edge="1">
          <mxGeometry width="50" height="50" relative="1" as="geometry">
            <mxPoint x="560" y="480" as="sourcePoint" />
            <mxPoint x="390" y="400" as="targetPoint" />
          </mxGeometry>
        </mxCell>
        <mxCell id="9C9BkFQv00oy1roisTuS-18" value="" style="endArrow=none;html=1;rounded=0;entryX=0;entryY=0.5;entryDx=0;entryDy=0;exitX=0;exitY=0;exitDx=150;exitDy=72.5;exitPerimeter=0;" parent="1" source="9C9BkFQv00oy1roisTuS-7" target="9C9BkFQv00oy1roisTuS-1" edge="1">
          <mxGeometry width="50" height="50" relative="1" as="geometry">
            <mxPoint x="560" y="480" as="sourcePoint" />
            <mxPoint x="610" y="430" as="targetPoint" />
          </mxGeometry>
        </mxCell>
        <mxCell id="9C9BkFQv00oy1roisTuS-19" value="" style="endArrow=none;html=1;rounded=0;exitX=0;exitY=0;exitDx=150;exitDy=72.5;exitPerimeter=0;entryX=0;entryY=0.5;entryDx=0;entryDy=0;" parent="1" source="9C9BkFQv00oy1roisTuS-7" target="UEzPUAAOIrF-is8g5C7q-108" edge="1">
          <mxGeometry width="50" height="50" relative="1" as="geometry">
            <mxPoint x="560" y="480" as="sourcePoint" />
            <mxPoint x="610" y="430" as="targetPoint" />
          </mxGeometry>
        </mxCell>
      </root>
    </mxGraphModel>
  </diagram>
</mxfile>
